<svg class="marks" width="497" height="244" viewBox="0 0 497 244" version="1.1" xmlns="http://www.w3.org/2000/svg" xmlns:xlink="http://www.w3.org/1999/xlink"><rect width="497" height="244" style="fill: white;"></rect><defs><clipPath id="clip1"><rect x="0" y="0" width="15.3" height="158.71744999999999"></rect></clipPath><clipPath id="clip2"><rect x="0" y="0" width="15.3" height="171.84758333333335"></rect></clipPath><clipPath id="clip3"><rect x="0" y="0" width="15.3" height="171.547975"></rect></clipPath><clipPath id="clip4"><rect x="0" y="0" width="15.3" height="166.08406666666667"></rect></clipPath><clipPath id="clip5"><rect x="0" y="0" width="15.3" height="158.796325"></rect></clipPath><clipPath id="clip6"><rect x="0" y="0" width="15.3" height="159.81666666666666"></rect></clipPath><clipPath id="clip7"><rect x="0" y="0" width="15.3" height="169.37645833333332"></rect></clipPath><clipPath id="clip8"><rect x="0" y="0" width="15.3" height="192.59024166666669"></rect></clipPath><clipPath id="clip9"><rect x="0" y="0" width="15.3" height="190.07358333333332"></rect></clipPath><clipPath id="clip10"><rect x="0" y="0" width="15.3" height="168.218825"></rect></clipPath><clipPath id="clip11"><rect x="0" y="0" width="15.3" height="145.15889166666668"></rect></clipPath><clipPath id="clip12"><rect x="0" y="0" width="15.3" height="111.50291666666668"></rect></clipPath><clipPath id="clip13"><rect x="0" y="0" width="15.3" height="89.93633333333332"></rect></clipPath><clipPath id="clip14"><rect x="0" y="0" width="15.3" height="77.15339166666668"></rect></clipPath><clipPath id="clip15"><rect x="0" y="0" width="15.3" height="74.80833333333332"></rect></clipPath><clipPath id="clip16"><rect x="0" y="0" width="15.3" height="60.56915833333335"></rect></clipPath><clipPath id="clip17"><rect x="0" y="0" width="15.3" height="42.70446666666666"></rect></clipPath><clipPath id="clip18"><rect x="0" y="0" width="15.3" height="24.595941666666675"></rect></clipPath><clipPath id="clip19"><rect x="0" y="0" width="15.3" height="11.674033333333341"></rect></clipPath></defs><g transform="translate(81,5)"><g class="mark-group role-frame root"><g transform="translate(0,0)"><path class="background" d="M0.5,0.5h323v200h-323Z" style="fill: none; stroke: #ddd;"></path><g><g class="mark-group role-axis"><g transform="translate(0.5,0.5)"><path class="background" d="M0,0h0v0h0Z" style="pointer-events: none; fill: none;"></path><g><g class="mark-rule role-axis-grid" style="pointer-events: none;"><line transform="translate(0,200)" x2="323" y2="0" style="fill: none; stroke: #ddd; stroke-width: 1; opacity: 1;"></line><line transform="translate(0,158)" x2="323" y2="0" style="fill: none; stroke: #ddd; stroke-width: 1; opacity: 1;"></line><line transform="translate(0,117)" x2="323" y2="0" style="fill: none; stroke: #ddd; stroke-width: 1; opacity: 1;"></line><line transform="translate(0,75)" x2="323" y2="0" style="fill: none; stroke: #ddd; stroke-width: 1; opacity: 1;"></line><line transform="translate(0,33)" x2="323" y2="0" style="fill: none; stroke: #ddd; stroke-width: 1; opacity: 1;"></line></g></g></g></g><g class="mark-group role-axis"><g transform="translate(0.5,200.5)"><path class="background" d="M0,0h0v0h0Z" style="pointer-events: none; fill: none;"></path><g><g class="mark-rule role-axis-tick" style="pointer-events: none;"><line transform="translate(8,0)" x2="0" y2="5" style="fill: none; stroke: #888; stroke-width: 1; opacity: 1;"></line><line transform="translate(25,0)" x2="0" y2="5" style="fill: none; stroke: #888; stroke-width: 1; opacity: 1;"></line><line transform="translate(42,0)" x2="0" y2="5" style="fill: none; stroke: #888; stroke-width: 1; opacity: 1;"></line><line transform="translate(59,0)" x2="0" y2="5" style="fill: none; stroke: #888; stroke-width: 1; opacity: 1;"></line><line transform="translate(76,0)" x2="0" y2="5" style="fill: none; stroke: #888; stroke-width: 1; opacity: 1;"></line><line transform="translate(93,0)" x2="0" y2="5" style="fill: none; stroke: #888; stroke-width: 1; opacity: 1;"></line><line transform="translate(110,0)" x2="0" y2="5" style="fill: none; stroke: #888; stroke-width: 1; opacity: 1;"></line><line transform="translate(127,0)" x2="0" y2="5" style="fill: none; stroke: #888; stroke-width: 1; opacity: 1;"></line><line transform="translate(144,0)" x2="0" y2="5" style="fill: none; stroke: #888; stroke-width: 1; opacity: 1;"></line><line transform="translate(161,0)" x2="0" y2="5" style="fill: none; stroke: #888; stroke-width: 1; opacity: 1;"></line><line transform="translate(178,0)" x2="0" y2="5" style="fill: none; stroke: #888; stroke-width: 1; opacity: 1;"></line><line transform="translate(195,0)" x2="0" y2="5" style="fill: none; stroke: #888; stroke-width: 1; opacity: 1;"></line><line transform="translate(212,0)" x2="0" y2="5" style="fill: none; stroke: #888; stroke-width: 1; opacity: 1;"></line><line transform="translate(229,0)" x2="0" y2="5" style="fill: none; stroke: #888; stroke-width: 1; opacity: 1;"></line><line transform="translate(246,0)" x2="0" y2="5" style="fill: none; stroke: #888; stroke-width: 1; opacity: 1;"></line><line transform="translate(263,0)" x2="0" y2="5" style="fill: none; stroke: #888; stroke-width: 1; opacity: 1;"></line><line transform="translate(280,0)" x2="0" y2="5" style="fill: none; stroke: #888; stroke-width: 1; opacity: 1;"></line><line transform="translate(297,0)" x2="0" y2="5" style="fill: none; stroke: #888; stroke-width: 1; opacity: 1;"></line><line transform="translate(314,0)" x2="0" y2="5" style="fill: none; stroke: #888; stroke-width: 1; opacity: 1;"></line></g><g class="mark-text role-axis-label" style="pointer-events: none;"><text text-anchor="end" transform="translate(8.000000000000023,7) rotate(270) translate(0,3)" style="font-family: sans-serif; font-size: 10px; fill: #000; opacity: 1;">0</text><text text-anchor="end" transform="translate(25.00000000000002,7) rotate(270) translate(0,3)" style="font-family: sans-serif; font-size: 10px; fill: #000; opacity: 1;">5</text><text text-anchor="end" transform="translate(42.00000000000002,7) rotate(270) translate(0,3)" style="font-family: sans-serif; font-size: 10px; fill: #000; opacity: 1;">10</text><text text-anchor="end" transform="translate(59.00000000000002,7) rotate(270) translate(0,3)" style="font-family: sans-serif; font-size: 10px; fill: #000; opacity: 1;">15</text><text text-anchor="end" transform="translate(76.00000000000003,7) rotate(270) translate(0,3)" style="font-family: sans-serif; font-size: 10px; fill: #000; opacity: 1;">20</text><text text-anchor="end" transform="translate(93.00000000000003,7) rotate(270) translate(0,3)" style="font-family: sans-serif; font-size: 10px; fill: #000; opacity: 1;">25</text><text text-anchor="end" transform="translate(110.00000000000003,7) rotate(270) translate(0,3)" style="font-family: sans-serif; font-size: 10px; fill: #000; opacity: 1;">30</text><text text-anchor="end" transform="translate(127.00000000000003,7) rotate(270) translate(0,3)" style="font-family: sans-serif; font-size: 10px; fill: #000; opacity: 1;">35</text><text text-anchor="end" transform="translate(144.00000000000003,7) rotate(270) translate(0,3)" style="font-family: sans-serif; font-size: 10px; fill: #000; opacity: 1;">40</text><text text-anchor="end" transform="translate(161.00000000000003,7) rotate(270) translate(0,3)" style="font-family: sans-serif; font-size: 10px; fill: #000; opacity: 1;">45</text><text text-anchor="end" transform="translate(178.00000000000003,7) rotate(270) translate(0,3)" style="font-family: sans-serif; font-size: 10px; fill: #000; opacity: 1;">50</text><text text-anchor="end" transform="translate(195.00000000000003,7) rotate(270) translate(0,3)" style="font-family: sans-serif; font-size: 10px; fill: #000; opacity: 1;">55</text><text text-anchor="end" transform="translate(212.00000000000003,7) rotate(270) translate(0,3)" style="font-family: sans-serif; font-size: 10px; fill: #000; opacity: 1;">60</text><text text-anchor="end" transform="translate(229.00000000000003,7) rotate(270) translate(0,3)" style="font-family: sans-serif; font-size: 10px; fill: #000; opacity: 1;">65</text><text text-anchor="end" transform="translate(246.00000000000003,7) rotate(270) translate(0,3)" style="font-family: sans-serif; font-size: 10px; fill: #000; opacity: 1;">70</text><text text-anchor="end" transform="translate(263,7) rotate(270) translate(0,3)" style="font-family: sans-serif; font-size: 10px; fill: #000; opacity: 1;">75</text><text text-anchor="end" transform="translate(280,7) rotate(270) translate(0,3)" style="font-family: sans-serif; font-size: 10px; fill: #000; opacity: 1;">80</text><text text-anchor="end" transform="translate(297,7) rotate(270) translate(0,3)" style="font-family: sans-serif; font-size: 10px; fill: #000; opacity: 1;">85</text><text text-anchor="end" transform="translate(314,7) rotate(270) translate(0,3)" style="font-family: sans-serif; font-size: 10px; fill: #000; opacity: 1;">90</text></g><g class="mark-rule role-axis-domain" style="pointer-events: none;"><line transform="translate(0,0)" x2="323" y2="0" style="fill: none; stroke: #888; stroke-width: 1; opacity: 1;"></line></g><g class="mark-text role-axis-title" style="pointer-events: none;"><text text-anchor="middle" transform="translate(161.5,32.00000000000001)" style="font-family: sans-serif; font-size: 11px; font-weight: bold; fill: #000; opacity: 1;">age</text></g></g></g></g><g class="mark-group role-axis"><g transform="translate(0.5,0.5)"><path class="background" d="M0,0h0v0h0Z" style="pointer-events: none; fill: none;"></path><g><g class="mark-rule role-axis-tick" style="pointer-events: none;"><line transform="translate(0,200)" x2="-5" y2="0" style="fill: none; stroke: #888; stroke-width: 1; opacity: 1;"></line><line transform="translate(0,158)" x2="-5" y2="0" style="fill: none; stroke: #888; stroke-width: 1; opacity: 1;"></line><line transform="translate(0,117)" x2="-5" y2="0" style="fill: none; stroke: #888; stroke-width: 1; opacity: 1;"></line><line transform="translate(0,75)" x2="-5" y2="0" style="fill: none; stroke: #888; stroke-width: 1; opacity: 1;"></line><line transform="translate(0,33)" x2="-5" y2="0" style="fill: none; stroke: #888; stroke-width: 1; opacity: 1;"></line></g><g class="mark-text role-axis-label" style="pointer-events: none;"><text text-anchor="end" transform="translate(-7,203)" style="font-family: sans-serif; font-size: 10px; fill: #000; opacity: 1;">0</text><text text-anchor="end" transform="translate(-7,161.33333333333331)" style="font-family: sans-serif; font-size: 10px; fill: #000; opacity: 1;">5,000,000</text><text text-anchor="end" transform="translate(-7,119.66666666666666)" style="font-family: sans-serif; font-size: 10px; fill: #000; opacity: 1;">10,000,000</text><text text-anchor="end" transform="translate(-7,78)" style="font-family: sans-serif; font-size: 10px; fill: #000; opacity: 1;">15,000,000</text><text text-anchor="end" transform="translate(-7,36.33333333333333)" style="font-family: sans-serif; font-size: 10px; fill: #000; opacity: 1;">20,000,000</text></g><g class="mark-rule role-axis-domain" style="pointer-events: none;"><line transform="translate(0,200)" x2="0" y2="-200" style="fill: none; stroke: #888; stroke-width: 1; opacity: 1;"></line></g><g class="mark-text role-axis-title" style="pointer-events: none;"><text text-anchor="middle" transform="translate(-65,100) rotate(-90) translate(0,-2)" style="font-family: sans-serif; font-size: 11px; font-weight: bold; fill: #000; opacity: 1;">population</text></g></g></g></g><g class="mark-group role-scope"><g transform="translate(0.8500000000000227,41.28255000000001)"><path class="background" d="M0,0h15.3v158.71744999999999h-15.3Z" style="fill: none;"></path><g clip-path="url(#clip1)"><g class="mark-group role-scope"><g transform="translate(0,-41.28255000000001)"><path class="background" d="M0,0h15.3v0h-15.3Z" style="fill: none;"></path><g><g class="mark-rect role-mark marks"><path d="M0,118.87183333333333h15.3v81.12816666666667h-15.3Z" style="fill: #4c78a8; opacity: 0.7159125078411632;"></path><path d="M0,41.28255000000001h15.3v77.58928333333333h-15.3Z" style="fill: #4c78a8; opacity: 0.6971208859558573;"></path></g></g></g></g></g></g><g transform="translate(17.850000000000023,28.152416666666657)"><path class="background" d="M0,0h15.3v171.84758333333335h-15.3Z" style="fill: none;"></path><g clip-path="url(#clip2)"><g class="mark-group role-scope"><g transform="translate(0,-28.152416666666657)"><path class="background" d="M0,0h15.3v0h-15.3Z" style="fill: none;"></path><g><g class="mark-rect role-mark marks"><path d="M0,112.06545000000001h15.3v87.93454999999999h-15.3Z" style="fill: #4c78a8; opacity: 0.752054694502619;"></path><path d="M0,28.152416666666657h15.3v83.91303333333336h-15.3Z" style="fill: #4c78a8; opacity: 0.7307002689713669;"></path></g></g></g></g></g></g><g transform="translate(34.85000000000002,28.452024999999992)"><path class="background" d="M0,0h15.3v171.547975h-15.3Z" style="fill: none;"></path><g clip-path="url(#clip3)"><g class="mark-group role-scope"><g transform="translate(0,-28.452024999999992)"><path class="background" d="M0,0h15.3v0h-15.3Z" style="fill: none;"></path><g><g class="mark-rect role-mark marks"><path d="M0,111.97305833333333h15.3v88.02694166666667h-15.3Z" style="fill: #4c78a8; opacity: 0.7525452982049224;"></path><path d="M0,28.452024999999992h15.3v83.52103333333334h-15.3Z" style="fill: #4c78a8; opacity: 0.7286187322025067;"></path></g></g></g></g></g></g><g transform="translate(51.85000000000002,33.915933333333335)"><path class="background" d="M0,0h15.3v166.08406666666667h-15.3Z" style="fill: none;"></path><g clip-path="url(#clip4)"><g class="mark-group role-scope"><g transform="translate(0,-33.915933333333335)"><path class="background" d="M0,0h15.3v0h-15.3Z" style="fill: none;"></path><g><g class="mark-rect role-mark marks"><path d="M0,114.68817499999999h15.3v85.31182500000001h-15.3Z" style="fill: #4c78a8; opacity: 0.7381279125584637;"></path><path d="M0,33.915933333333335h15.3v80.77224166666664h-15.3Z" style="fill: #4c78a8; opacity: 0.7140225308655087;"></path></g></g></g></g></g></g><g transform="translate(68.85000000000002,41.203675)"><path class="background" d="M0,0h15.3v158.796325h-15.3Z" style="fill: none;"></path><g clip-path="url(#clip5)"><g class="mark-group role-scope"><g transform="translate(0,-41.203675)"><path class="background" d="M0,0h15.3v0h-15.3Z" style="fill: none;"></path><g><g class="mark-rect role-mark marks"><path d="M0,118.90570833333334h15.3v81.09429166666666h-15.3Z" style="fill: #4c78a8; opacity: 0.7157326301420684;"></path><path d="M0,41.203675h15.3v77.70203333333333h-15.3Z" style="fill: #4c78a8; opacity: 0.6977195932790434;"></path></g></g></g></g></g></g><g transform="translate(85.85000000000002,40.18333333333332)"><path class="background" d="M0,0h15.3v159.81666666666666h-15.3Z" style="fill: none;"></path><g clip-path="url(#clip6)"><g class="mark-group role-scope"><g transform="translate(0,-40.18333333333332)"><path class="background" d="M0,0h15.3v0h-15.3Z" style="fill: none;"></path><g><g class="mark-rect role-mark marks"><path d="M0,119.50422499999999h15.3v80.49577500000001h-15.3Z" style="fill: #4c78a8; opacity: 0.7125544810388993;"></path><path d="M0,40.18333333333332h15.3v79.32089166666667h-15.3Z" style="fill: #4c78a8; opacity: 0.7063158002800871;"></path></g></g></g></g></g></g><g transform="translate(102.85000000000002,30.623541666666675)"><path class="background" d="M0,0h15.3v169.37645833333332h-15.3Z" style="fill: none;"></path><g clip-path="url(#clip7)"><g class="mark-group role-scope"><g transform="translate(0,-30.623541666666675)"><path class="background" d="M0,0h15.3v0h-15.3Z" style="fill: none;"></path><g><g class="mark-rect role-mark marks"><path d="M0,114.95100833333333h15.3v85.04899166666667h-15.3Z" style="fill: #4c78a8; opacity: 0.7367322563150569;"></path><path d="M0,30.623541666666675h15.3v84.32746666666665h-15.3Z" style="fill: #4c78a8; opacity: 0.7329009276998736;"></path></g></g></g></g></g></g><g transform="translate(119.85000000000002,7.409758333333327)"><path class="background" d="M0,0h15.3v192.59024166666669h-15.3Z" style="fill: none;"></path><g clip-path="url(#clip8)"><g class="mark-group role-scope"><g transform="translate(0,-7.409758333333327)"><path class="background" d="M0,0h15.3v0h-15.3Z" style="fill: none;"></path><g><g class="mark-rect role-mark marks"><path d="M0,7.409758333333327h15.3v95.62651666666669h-15.3Z" style="fill: #4c78a8; opacity: 0.792899366547297;"></path><path d="M0,103.03627500000002h15.3v96.96372499999998h-15.3Z" style="fill: #4c78a8; opacity: 0.8;"></path></g></g></g></g></g></g><g transform="translate(136.85000000000002,9.926416666666672)"><path class="background" d="M0,0h15.3v190.07358333333332h-15.3Z" style="fill: none;"></path><g clip-path="url(#clip9)"><g class="mark-group role-scope"><g transform="translate(0,-9.926416666666672)"><path class="background" d="M0,0h15.3v0h-15.3Z" style="fill: none;"></path><g><g class="mark-rect role-mark marks"><path d="M0,9.926416666666672h15.3v94.33543333333334h-15.3Z" style="fill: #4c78a8; opacity: 0.7860436588177155;"></path><path d="M0,104.26185000000001h15.3v95.73814999999999h-15.3Z" style="fill: #4c78a8; opacity: 0.7934921443227148;"></path></g></g></g></g></g></g><g transform="translate(153.85000000000002,31.781174999999994)"><path class="background" d="M0,0h15.3v168.218825h-15.3Z" style="fill: none;"></path><g clip-path="url(#clip10)"><g class="mark-group role-scope"><g transform="translate(0,-31.781174999999994)"><path class="background" d="M0,0h15.3v0h-15.3Z" style="fill: none;"></path><g><g class="mark-rect role-mark marks"><path d="M0,31.781174999999994h15.3v82.70838333333333h-15.3Z" style="fill: #4c78a8; opacity: 0.724303525939205;"></path><path d="M0,114.48955833333332h15.3v85.51044166666668h-15.3Z" style="fill: #4c78a8; opacity: 0.7391825755548287;"></path></g></g></g></g></g></g><g transform="translate(170.85000000000002,54.84110833333333)"><path class="background" d="M0,0h15.3v145.15889166666668h-15.3Z" style="fill: none;"></path><g clip-path="url(#clip11)"><g class="mark-group role-scope"><g transform="translate(0,-54.84110833333333)"><path class="background" d="M0,0h15.3v0h-15.3Z" style="fill: none;"></path><g><g class="mark-rect role-mark marks"><path d="M0,54.84110833333333h15.3v70.89945h-15.3Z" style="fill: #4c78a8; opacity: 0.6615975847801431;"></path><path d="M0,125.74055833333333h15.3v74.25944166666667h-15.3Z" style="fill: #4c78a8; opacity: 0.6794392842628741;"></path></g></g></g></g></g></g><g transform="translate(187.85000000000002,88.49708333333332)"><path class="background" d="M0,0h15.3v111.50291666666668h-15.3Z" style="fill: none;"></path><g clip-path="url(#clip12)"><g class="mark-group role-scope"><g transform="translate(0,-88.49708333333332)"><path class="background" d="M0,0h15.3v0h-15.3Z" style="fill: none;"></path><g><g class="mark-rect role-mark marks"><path d="M0,88.49708333333332h15.3v53.825683333333345h-15.3Z" style="fill: #4c78a8; opacity: 0.5709351534035958;"></path><path d="M0,142.32276666666667h15.3v57.677233333333334h-15.3Z" style="fill: #4c78a8; opacity: 0.591387048664064;"></path></g></g></g></g></g></g><g transform="translate(204.85000000000002,110.06366666666668)"><path class="background" d="M0,0h15.3v89.93633333333332h-15.3Z" style="fill: none;"></path><g clip-path="url(#clip13)"><g class="mark-group role-scope"><g transform="translate(0,-110.06366666666668)"><path class="background" d="M0,0h15.3v0h-15.3Z" style="fill: none;"></path><g><g class="mark-rect role-mark marks"><path d="M0,110.06366666666668h15.3v42.69499166666665h-15.3Z" style="fill: #4c78a8; opacity: 0.5118307045081555;"></path><path d="M0,152.75865833333333h15.3v47.24134166666667h-15.3Z" style="fill: #4c78a8; opacity: 0.5359720174905729;"></path></g></g></g></g></g></g><g transform="translate(221.85000000000002,122.84660833333332)"><path class="background" d="M0,0h15.3v77.15339166666668h-15.3Z" style="fill: none;"></path><g clip-path="url(#clip14)"><g class="mark-group role-scope"><g transform="translate(0,-122.84660833333332)"><path class="background" d="M0,0h15.3v0h-15.3Z" style="fill: none;"></path><g><g class="mark-rect role-mark marks"><path d="M0,122.84660833333332h15.3v37.113524999999996h-15.3Z" style="fill: #4c78a8; opacity: 0.4821928777458231;"></path><path d="M0,159.96013333333332h15.3v40.03986666666668h-15.3Z" style="fill: #4c78a8; opacity: 0.4977318771780026;"></path></g></g></g></g></g></g><g transform="translate(238.85000000000002,125.19166666666668)"><path class="background" d="M0,0h15.3v74.80833333333332h-15.3Z" style="fill: none;"></path><g clip-path="url(#clip15)"><g class="mark-group role-scope"><g transform="translate(0,-125.19166666666668)"><path class="background" d="M0,0h15.3v0h-15.3Z" style="fill: none;"></path><g><g class="mark-rect role-mark marks"><path d="M0,125.19166666666668h15.3v31.601208333333332h-15.3Z" style="fill: #4c78a8; opacity: 0.45292224044156904;"></path><path d="M0,156.792875h15.3v43.20712499999999h-15.3Z" style="fill: #4c78a8; opacity: 0.514550154416044;"></path></g></g></g></g></g></g><g transform="translate(255.85000000000002,139.43084166666665)"><path class="background" d="M0,0h15.3v60.56915833333335h-15.3Z" style="fill: none;"></path><g clip-path="url(#clip16)"><g class="mark-group role-scope"><g transform="translate(0,-139.43084166666665)"><path class="background" d="M0,0h15.3v0h-15.3Z" style="fill: none;"></path><g><g class="mark-rect role-mark marks"><path d="M0,139.43084166666665h15.3v24.272125000000017h-15.3Z" style="fill: #4c78a8; opacity: 0.41400449442020704;"></path><path d="M0,163.70296666666667h15.3v36.29703333333333h-15.3Z" style="fill: #4c78a8; opacity: 0.4778572720681838;"></path></g></g></g></g></g></g><g transform="translate(272.85,157.29553333333334)"><path class="background" d="M0,0h15.3v42.70446666666666h-15.3Z" style="fill: none;"></path><g clip-path="url(#clip17)"><g class="mark-group role-scope"><g transform="translate(0,-157.29553333333334)"><path class="background" d="M0,0h15.3v0h-15.3Z" style="fill: none;"></path><g><g class="mark-rect role-mark marks"><path d="M0,157.29553333333334h15.3v15.855316666666653h-15.3Z" style="fill: #4c78a8; opacity: 0.36931088211846635;"></path><path d="M0,173.15085h15.3v26.84915000000001h-15.3Z" style="fill: #4c78a8; opacity: 0.4276886074094213;"></path></g></g></g></g></g></g><g transform="translate(289.85,175.40405833333332)"><path class="background" d="M0,0h15.3v24.595941666666675h-15.3Z" style="fill: none;"></path><g clip-path="url(#clip18)"><g class="mark-group role-scope"><g transform="translate(0,-175.40405833333332)"><path class="background" d="M0,0h15.3v0h-15.3Z" style="fill: none;"></path><g><g class="mark-rect role-mark marks"><path d="M0,175.40405833333332h15.3v8.086308333333335h-15.3Z" style="fill: #4c78a8; opacity: 0.3280571155281227;"></path><path d="M0,183.49036666666666h15.3v16.50963333333334h-15.3Z" style="fill: #4c78a8; opacity: 0.3727853316086315;"></path></g></g></g></g></g></g><g transform="translate(306.85,188.32596666666666)"><path class="background" d="M0,0h15.3v11.674033333333341h-15.3Z" style="fill: none;"></path><g clip-path="url(#clip19)"><g class="mark-group role-scope"><g transform="translate(0,-188.32596666666666)"><path class="background" d="M0,0h15.3v0h-15.3Z" style="fill: none;"></path><g><g class="mark-rect role-mark marks"><path d="M0,188.32596666666666h15.3v2.8025250000000312h-15.3Z" style="fill: #4c78a8; opacity: 0.3;"></path><path d="M0,191.1284916666667h15.3v8.87150833333331h-15.3Z" style="fill: #4c78a8; opacity: 0.33222656111717636;"></path></g></g></g></g></g></g></g><g class="mark-group role-legend"><g transform="translate(341,0)"><path class="background" d="M0,0h70v93h-70Z" style="pointer-events: none; fill: none;"></path><g><g class="mark-group role-legend-entry"><g transform="translate(0,16)"><path class="background" d="M0,0h0v0h0Z" style="pointer-events: none; fill: none;"></path><g><g class="mark-group role-scope"><g transform="translate(0,0)"><path class="background" d="M0,0h70v12.5h-70Z" style="pointer-events: none; fill: none; opacity: 1;"></path><g><g class="mark-symbol role-legend-symbol" style="pointer-events: none;"><path transform="translate(6,6)" d="M-5,-5h10v10h-10Z" style="fill: #4c78a8; stroke: none; stroke-width: 1.5; opacity: 0.373619185326157;"></path></g><g class="mark-text role-legend-label" style="pointer-events: none;"><text text-anchor="start" transform="translate(16,9)" style="font-family: sans-serif; font-size: 10px; fill: #000; opacity: 1;">2,000,000</text></g></g></g><g transform="translate(0,16)"><path class="background" d="M0,0h70v12.5h-70Z" style="pointer-events: none; fill: none; opacity: 1;"></path><g><g class="mark-symbol role-legend-symbol" style="pointer-events: none;"><path transform="translate(6,6)" d="M-5,-5h10v10h-10Z" style="fill: #4c78a8; stroke: none; stroke-width: 1.5; opacity: 0.46211989828790057;"></path></g><g class="mark-text role-legend-label" style="pointer-events: none;"><text text-anchor="start" transform="translate(16,9)" style="font-family: sans-serif; font-size: 10px; fill: #000; opacity: 1;">4,000,000</text></g></g></g><g transform="translate(0,32)"><path class="background" d="M0,0h70v12.5h-70Z" style="pointer-events: none; fill: none; opacity: 1;"></path><g><g class="mark-symbol role-legend-symbol" style="pointer-events: none;"><path transform="translate(6,6)" d="M-5,-5h10v10h-10Z" style="fill: #4c78a8; stroke: none; stroke-width: 1.5; opacity: 0.5506206112496442;"></path></g><g class="mark-text role-legend-label" style="pointer-events: none;"><text text-anchor="start" transform="translate(16,9)" style="font-family: sans-serif; font-size: 10px; fill: #000; opacity: 1;">6,000,000</text></g></g></g><g transform="translate(0,48)"><path class="background" d="M0,0h70v12.5h-70Z" style="pointer-events: none; fill: none; opacity: 1;"></path><g><g class="mark-symbol role-legend-symbol" style="pointer-events: none;"><path transform="translate(6,6)" d="M-5,-5h10v10h-10Z" style="fill: #4c78a8; stroke: none; stroke-width: 1.5; opacity: 0.6391213242113879;"></path></g><g class="mark-text role-legend-label" style="pointer-events: none;"><text text-anchor="start" transform="translate(16,9)" style="font-family: sans-serif; font-size: 10px; fill: #000; opacity: 1;">8,000,000</text></g></g></g><g transform="translate(0,64)"><path class="background" d="M0,0h70v12.5h-70Z" style="pointer-events: none; fill: none; opacity: 1;"></path><g><g class="mark-symbol role-legend-symbol" style="pointer-events: none;"><path transform="translate(6,6)" d="M-5,-5h10v10h-10Z" style="fill: #4c78a8; stroke: none; stroke-width: 1.5; opacity: 0.7276220371731316;"></path></g><g class="mark-text role-legend-label" style="pointer-events: none;"><text text-anchor="start" transform="translate(16,9)" style="font-family: sans-serif; font-size: 10px; fill: #000; opacity: 1;">10,000,000</text></g></g></g></g></g></g></g><g class="mark-text role-legend-title" style="pointer-events: none;"><text text-anchor="start" transform="translate(0,9)" style="font-family: sans-serif; font-size: 11px; font-weight: bold; fill: #000; opacity: 1;">people</text></g></g></g></g></g></g></g></g></svg>